<svg xmlns="http://www.w3.org/2000/svg" width="1092" height="210.156" viewBox="0 0 1092 210.156">
  <defs>
    <style>
      .cls-1 {
        fill: #cb0303;
        fill-rule: evenodd;
      }
    </style>
  </defs>
  <path id="Color_Fill_1" data-name="Color Fill 1" class="cls-1" d="M118,21c10.534-.124,22.237-0.3,30,2h6c24.1,7.523,43.793,18.607,57,37l4,3v2l2,1,1,3h1v2l2,1q0.5,2,1,4h1v2h1q1,3,2,6h1v3h1v2h1q0.5,3,1,6c3.367,8.646,5,18.577,5,31v12h-1v7q-2.5,9-5,18h-1v2h-1v3h-1q-1,3-2,6h-1v2h-1q-0.5,2-1,4l-2,1v2l-2,1v2l-2,1v2l-4,3v2l-8,7-5,6h-2l-3,4h-2q-0.5,1-1,2l-3,1v1h-2q-0.5,1-1,2h-2v1h-2v1h-2v1h-2v1l-4,1v1h-3v1h-2v1h-3v1h-3v1h-3v1h-4v1h-5v1h-7v1H129c-13.389,0-23.639-2.249-33-6H93v-1H91v-1H88v-1l-6-2v-1H80v-1l-4-1-1-2H73v-1l-3-1-1-2H67l-3-4H62l-5-6-8-7v-2l-4-3v-2l-2-1v-2l-2-1v-2l-2-1-1-4H37v-2H36l-2-6H33v-3H32v-2H31l-1-6c-3.422-8.761-5-18.565-5-31V114h1v-6h1v-6h1V98h1V95h1V92h1V89h1V87h1V84h1l2-6h1V76h1l1-4,2-1V69h1l1-3,2-1V63l4-3V58l6-5,7-8h2l3-4h2l1-2h2l1-2h2l1-2,4-1V33h2V32l6-2V29l18-6C110.214,21.7,115.177,23.481,118,21Zm347,0V59H383c-13.409,0-31.7-1.663-42,2l-16,7v1l-3,1-1,2h-2l-3,4h-2l-3,4h-1v2l-4,3v2l-3,2q-1,3-2,6c-5.344,10.025-8.026,17.178-8,33v8h1v5h1v4h1v3h1v3h1l2,6h1v2h1l1,4,3,2v2l4,3v2l4,3v1h2l3,4h2l2,3h2v1h2v1h2v1h2v1h2v1h2v1c11.611,5.076,29.42,4,46,4h84v38H379c-15.231,0-31.726.707-43-3h-4c-22.059-7.835-40.5-18.6-53-36l-4-3v-2l-2-1-1-3h-1v-2l-2-1-1-4h-1v-2h-1l-2-6h-1v-3h-1v-2h-1q-1-4.5-2-9h-1q-0.5-4.5-1-9h-1v-7c-1.053-3.727-2.458-18.86-1-24h1v-7h1v-5h1V98h1V95h1V92h1V89h1V87h1V84h1q0.5-2,1-4h1V78h1V76h1V74h1V72l2-1V69h1l1-3,2-1V63l4-3c12.488-17.361,30.936-28.23,53-36l10-1c9.583-2.814,24.467-2,37-2h86Zm30,0H705V59H619V231H581V59H495V21Zm240,0H945V59H859V231H821V59H735V21Zm274,1h2c1.35,0.86,3.91,8.968,5,11h1v2h1v2h1c0.33,1.333.67,2.667,1,4h1c0.33,1.333.67,2.667,1,4h1v2h1v2h1v2h1v2h1v2h1v2h1v2h1v2h1v2c0.67,0.333,1.33.667,2,1v2h1v2h1v2h1v2h1v2h1v2h1c0.33,1.333.67,2.667,1,4h1v2h1v2h1v2h1v2h1v2h1c0.33,1.333.67,2.667,1,4,7.93,14.833,16.05,30.179,24,45,0.67,2,1.33,4,2,6h1c0.33,1.333.67,2.667,1,4h1c0.33,1.333.67,2.667,1,4h1v2h1v2h1v2h1v2h1v2h1c0.67,2,1.33,4,2,6,0.67,0.333,1.33.667,2,1v2h1v2h1v2h1v2h1c0.67,2,1.33,4,2,6h1c0.33,1.333.67,2.667,1,4h1c0.33,1.333.67,2.667,1,4h1v2h1v2h1v2h1v2h1v2h1v2h1v2h1v2h1v2h1c0.33,1.333.67,2.667,1,4,0.67,0.333,1.33.667,2,1q3.495,8,7,16h-42c-4.6-11.159-11.43-21.653-17-32v-2h-1v-2h-1v-2h-1v-2h-1v-2h-1c-0.33-1.333-.67-2.667-1-4h-1c-0.33-1.333-.67-2.667-1-4h-1v-2h-1v-2h-1v-2h-1v-2h-1c-0.67-2-1.33-4-2-6-0.67-.333-1.33-0.667-2-1v-2h-1v-2h-1v-2h-1v-2h-1v-2h-1c-0.33-1.333-.67-2.667-1-4h-1v-2h-1v-2h-1v-2h-1v-2h-1v-2h-1c-0.33-1.333-.67-2.667-1-4h-1c-0.33-1.333-.67-2.667-1-4h-1v-2h-1v-2h-1v-2h-1v-2h-1v-2h-1c-0.67-2-1.33-4-2-6-0.67-.333-1.33-0.667-2-1v-2c-1.77-3.136-4.06-5.873-5-10h-2c-0.75,4.134-3.33,6.9-5,10-0.33,1.333-.67,2.667-1,4h-1c-0.33,1.333-.67,2.667-1,4h-1v2h-1v2h-1v2h-1v2h-1v2h-1q-0.5,2-1,4l-2,1q-0.5,2-1,4h-1v2h-1v2h-1v2h-1v2h-1q-0.5,2-1,4h-1q-0.5,2-1,4h-1q-0.5,2-1,4h-1q-0.5,2-1,4h-1q-0.5,2-1,4h-1v2h-1v2h-1v2h-1v2h-1v2h-1v2h-1v2h-1v2l-2,1q-0.5,2-1,4h-1v2h-1v2h-1v2h-1v2h-1q-1,3-2,6h-1q-0.5,2-1,4h-1q-0.5,2-1,4h-1v2h-1v2h-1v2h-1v2h-1q-1,3-2,6l-2,1q-0.5,1.5-1,3H903v-1h1q0.5-2,1-4h1v-2h1v-2h1v-2h1v-2h1v-2h1v-2h1v-2h1v-2h1q0.5-2,1-4h1v-2h1v-2h1v-2h1v-2h1v-2h1q1-3,2-6l2-1q0.5-2,1-4h1v-2h1v-2h1v-2h1v-2h1q0.5-2,1-4h1q0.5-2,1-4h1v-2h1q0.5-2,1-4h1v-2h1v-2h1v-2h1v-2h1q0.5-2,1-4l16-29q1-3,2-6h1q1-3,2-6h1q0.5-2,1-4h1q0.5-2,1-4h1v-2h1V98h1V96h1V94h1V92h1V90h1V88h1V86h1V84l2-1,7-16h1q1-3,2-6h1q0.5-2,1-4h1q0.5-2,1-4h1V51h1V49h1V47h1V45h1V43h1V41h1V39h1V37C1003.59,32.287,1007.61,28.1,1009,22ZM120,59c-2.259,1.967-5.835.87-9,2v1h-3v1l-9,3v1H97v1H95v1H93l-2,3H89l-3,4H84l-3,4H80v2l-4,3v2l-3,2v2H72v2H71v2H70v2H69v2H68v2H67v3H66v3H65v4H64v5H63c-1.806,6.3.73,21.144,2,25l2,10h1l2,6h1v2h1l1,4,3,2v2l4,3v2l4,3v1h2l3,4h2l2,3,4,1v1h2v1l6,2v1h3v1h3v1c3.778,1.326,23.309,3.665,29,2v-1h5v-1h4v-1h3v-1h3v-1l6-2v-1h2v-1l4-1,2-3h2l3-4h2l3-4h1v-2l4-3v-2l3-2v-2h1v-2h1v-2h1v-2h1v-2h1v-2h1v-3h1v-3h1v-4h1v-5h1c1.645-5.736-.652-25.209-2-29h-1q-0.5-3-1-6h-1q-0.5-2-1-4h-1V95h-1V93h-1V91h-1V89l-3-2V85l-4-3V80l-4-3V76h-2l-3-4-3-1-1-2-4-1V67h-2V66l-6-2V63l-6-1V61h-4V60C138.64,58,127.909,58.947,120,59Z" transform="translate(-25 -20.906)"/>
</svg>
